<?xml version="1.0" standalone="no"?>
<!DOCTYPE svg PUBLIC "-//W3C//DTD SVG 20010904//EN"
 "http://www.w3.org/TR/2001/REC-SVG-20010904/DTD/svg10.dtd">
<svg version="1.0" xmlns="http://www.w3.org/2000/svg"
 width="512.000000pt" height="512.000000pt" viewBox="0 0 512.000000 512.000000"
 preserveAspectRatio="xMidYMid meet">
<metadata>
Created by potrace 1.11, written by Peter Selinger 2001-2013
</metadata>
<g transform="translate(0.000000,512.000000) scale(0.100000,-0.100000)"
fill="#000000" stroke="none">
<path d="M2439 5106 c-197 -75 -303 -249 -271 -444 33 -196 193 -332 392 -332
112 0 205 38 281 115 194 194 137 522 -111 639 -57 27 -77 31 -160 33 -61 2
-108 -2 -131 -11z"/>
<path d="M3533 4871 c-139 -36 -216 -221 -148 -357 34 -69 70 -100 215 -189
166 -101 253 -168 384 -295 356 -345 572 -785 621 -1268 11 -112 6 -364 -10
-476 -108 -771 -642 -1419 -1375 -1669 -358 -123 -765 -143 -1129 -57 -590
140 -1098 545 -1374 1096 -92 183 -168 437 -197 652 -6 46 -11 157 -11 248 0
256 33 441 126 711 66 192 59 269 -31 357 -60 58 -109 79 -184 80 -54 1 -74
-4 -118 -29 -68 -37 -82 -58 -136 -197 -77 -201 -132 -428 -155 -640 -14 -124
-14 -430 -1 -556 108 -1014 825 -1880 1804 -2176 132 -41 333 -81 468 -96 125
-13 431 -13 556 0 592 63 1141 332 1563 766 289 299 494 645 613 1038 74 244
106 468 106 748 0 415 -84 771 -267 1139 -221 444 -545 795 -973 1055 -177
107 -264 136 -347 115z"/>
<path d="M660 4455 c0 -69 327 -521 1054 -1460 592 -764 589 -761 707 -807 76
-30 203 -29 282 1 107 42 186 121 229 232 29 75 29 203 0 278 -46 116 -44 115
-732 653 -812 634 -1295 993 -1466 1089 -57 33 -74 36 -74 14z"/>
</g>
</svg>
